<?xml version="1.0" encoding="iso-8859-1"?>
<!-- Generator: Adobe Illustrator 19.0.0, SVG Export Plug-In . SVG Version: 6.00 Build 0)  -->
<svg version="1.1" id="Capa_1" xmlns="http://www.w3.org/2000/svg" xmlns:xlink="http://www.w3.org/1999/xlink" x="0px" y="0px"
	 viewBox="0 0 488.9 488.9" style="enable-background:new 0 0 488.9 488.9;" xml:space="preserve">
<g>
	<g>
		<path d="M412.759,89.1h-133.7c-5.4,0-10.1,4.7-10.1,10.1v63c0,7.4,7.8,12.4,14.4,8.9l133.7-62.9
			C426.759,103.4,423.259,89.1,412.759,89.1z"/>
		<path d="M220.059,162.1v-63c0-5.4-4.7-10.1-10.1-10.1h-133.7c-10.9,0-14,14.8-4.3,19l133.7,63.3
			C212.259,174.6,220.059,169.5,220.059,162.1z"/>
		<path d="M270.159,187c-5.4-0.8-10.1,3.1-10.9,8.5s3.1,10.1,8.5,10.9c32.3,4.3,47,15.9,47,22.1c0,8.5-23.7,21.4-60.2,23.7v-183l0,0
			c14.8-4.3,25.6-17.9,25.6-33.8c-0.4-19.4-16.3-35.4-35.7-35.4c-19.4,0-35.4,15.9-35.4,35.4c0,16.3,10.9,29.9,25.6,33.8v183
			c-36.5-1.9-60.2-14.8-60.2-23.7c0-6.6,14.8-17.9,47-22.1c5.4-0.8,8.9-5.4,8.5-10.9c-0.8-5.4-5.4-8.9-10.9-8.5
			c-39.2,5.4-64.1,21.4-64.1,41.6c0,16.3,15.9,28.4,37.7,35.7c-14,7.8-22.5,18.7-22.5,31.5c0,16.3,14,29.9,36.1,37.3
			c-8.9,7.8-14.4,18.3-14.4,29.5c0,13.6,7.8,25.6,19.4,33.4c-12,7.8-19.4,20.2-19.4,33.4c0,14.8,8.9,28.4,23.7,36.1
			c4.7,2.7,10.5,0.8,13.2-3.9c2.7-4.7,0.8-10.5-3.9-13.2c-8.5-4.7-13.6-11.7-13.6-19c0-10.5,10.1-19.8,23.7-22.9v72.7
			c0,5.4,4.3,9.7,9.7,9.7s9.7-4.3,9.7-9.7v-72.7c13.6,3.1,23.7,12,23.7,22.9c0,7.4-5.1,14.4-13.6,19c-4.7,2.7-6.6,8.5-3.9,13.2
			c1.9,3.1,6.4,7.2,13.2,3.9c14.8-8.2,23.7-21.4,23.7-36.1c0-13.6-7.8-25.6-19.4-33.4c12-7.8,19.4-20.2,19.4-33.4
			c0-11.7-5.4-21.8-14.4-29.5c21.8-7.4,36.1-21,36.1-37.3c0-12.8-8.5-23.7-22.5-31.5c21.8-7,37.7-19,37.7-35.7
			C334.259,208.4,309.759,192.4,270.159,187z M234.759,385.9c-13.6-3.1-23.7-12-23.7-22.9c0-10.5,10.1-19.8,23.7-22.9V385.9z
			 M234.759,319.1c-26.4-1.9-45.1-13.2-45.1-23.3c0-10.1,18.7-21,45.1-23.3L234.759,319.1L234.759,319.1z M254.259,386.3v-45.8
			c13.6,3.1,23.7,12,23.7,22.9C277.959,373.9,267.859,383.2,254.259,386.3z M299.259,295.8c0,10.1-18.7,21.4-45.1,23.3v-46.6
			C280.659,274.8,299.259,285.7,299.259,295.8z"/>
	</g>
</g>
<g>
</g>
<g>
</g>
<g>
</g>
<g>
</g>
<g>
</g>
<g>
</g>
<g>
</g>
<g>
</g>
<g>
</g>
<g>
</g>
<g>
</g>
<g>
</g>
<g>
</g>
<g>
</g>
<g>
</g>
</svg>
